<?xml version="1.0" encoding="utf-8"?>
<!-- Svg Vector Icons : http://www.onlinewebfonts.com/icon -->
<!DOCTYPE svg PUBLIC "-//W3C//DTD SVG 1.1//EN" "http://www.w3.org/Graphics/SVG/1.1/DTD/svg11.dtd">
<svg version="1.1" xmlns="http://www.w3.org/2000/svg" xmlns:xlink="http://www.w3.org/1999/xlink" x="0px" y="0px" viewBox="0 0 1000 1000" enable-background="new 0 0 1000 1000" xml:space="preserve">
<metadata> Svg Vector Icons : http://www.onlinewebfonts.com/icon </metadata>
<g><g transform="translate(0.000000,511.000000) scale(0.100000,-0.100000)"><path d="M4613.7,4990.3c-1459.7-153.3-2719-1157.1-3181-2537.1c-335.3-1005.8-229-2218.1,271.9-3093.1c241.2-415,541.8-752.3,1200.1-1335c247.4-220.8,554-502.9,680.8-625.6c648.1-631.7,1003.8-1175.5,1279.8-1954.4c77.7-214.7,90-235.1,134.9-235.1c42.9,0,57.2,16.4,90,112.4c161.5,470.2,329.1,821.8,552,1165.3c288.3,439.5,607.2,778.9,1371.8,1461.7C7711-1427,7960.4-1165.3,8203.7-789.2c576.5,887.2,719.6,2175.2,363.9,3242.4C8015.6,4103,6349.4,5170.2,4613.7,4990.3z M5766.8,3917c81.8-32.7,92-104.3,92-662.4c0-292.3,6.1-531.5,14.3-531.5c6.1,0,220.8,120.6,474.3,265.8c278,159.5,484.5,265.8,517.2,265.8c30.7,0,77.7-20.4,104.3-45c49.1-47,693-1148.9,733.9-1259.3c42.9-112.4-2.1-151.3-496.8-437.5c-251.5-145.1-464.1-271.9-472.3-280.1c-10.2-8.2,184-128.8,427.3-267.8c243.3-141.1,466.1-274,494.7-298.5c100.2-85.9,83.8-128.8-308.7-807.5c-357.8-615.4-400.7-672.6-494.7-672.6c-14.3,0-241.2,122.7-504.9,273.9l-478.4,276L5858.7-828l-10.2-562.2l-57.2-49.1l-57.2-49h-733.9h-733.9l-57.2,49l-57.2,49.1L4141.5-828l-10.2,564.2l-478.4-276c-263.7-151.3-492.7-273.9-511.1-273.9c-87.9,2-143.1,77.7-494.7,686.9c-308.7,529.5-365.9,641.9-355.7,691c6.1,32.7,20.4,71.6,32.7,85.9c12.3,14.3,233.1,149.2,490.6,298.5c257.6,149.2,460,276,451.8,284.2c-8.2,8.2-220.8,134.9-472.3,280.1c-494.7,286.2-539.7,325.1-496.8,437.5c40.9,110.4,684.9,1212.3,733.9,1259.3c26.6,24.5,73.6,45,104.3,45c34.8,0,241.2-106.3,531.5-273.9l474.3-273.9v539.7c0,437.5,6.1,552,30.7,601c16.4,30.7,40.9,61.3,55.2,67.5C4266.2,3931.3,5725.9,3931.3,5766.8,3917z"/><path d="M4861.1,3561.3c-139-83.8-159.5-265.8-45-396.6c49.1-53.2,61.3-87.9,61.3-159.5v-92l122.7,30.7c118.6,28.6,122.7,32.7,122.7,96.1c0,42.9,16.3,79.7,51.1,112.4C5398.8,3365,5124.8,3722.8,4861.1,3561.3z"/><path d="M5032.8,2813c-251.4-61.3-490.6-216.7-578.5-380.2c-55.2-104.3-49.1-327.1,12.3-453.8c47-96.1,249.4-318.9,288.3-318.9c12.3,0,20.4,47,20.4,104.3c0,94-8.2,114.5-79.7,192.2c-229,249.4-102.2,552,267.8,644c92,24.5,102.2,22.5,251.5-51.1c132.9-65.4,167.6-75.6,257.6-67.5c175.8,18.4,271.9,130.8,188.1,224.9c-20.4,22.5-79.7,63.4-132.9,90C5413.1,2853.9,5229.1,2860,5032.8,2813z M5370.1,2774.2c0-10.2-24.5-22.5-53.2-26.6c-36.8-4.1-51.1,2-51.1,26.6c0,24.5,14.3,30.7,51.1,26.6C5345.6,2796.7,5370.1,2786.5,5370.1,2774.2z"/><path d="M4940.8,2463.4l-49.1-10.2l14.3-386.4c6.1-212.6,18.4-562.2,24.5-776.9l14.3-390.5l57.2,59.3l57.2,57.2l24.5,713.5C5110.5,2541.1,5118.7,2496.1,4940.8,2463.4z"/><path d="M5218.9,1563.9c-8.2-6.1-14.3-49.1-14.3-94c0-59.3,14.3-98.1,61.3-151.3c34.8-36.8,61.3-90,61.3-114.5c0-73.6-102.2-216.7-257.6-359.8c-431.4-400.7-457.9-435.5-457.9-594.9c0-100.2,51.1-194.2,141.1-261.7c34.8-24.5,67.5-45,73.6-45c24.5,0,8.2,190.1-22.5,249.4c-49.1,96.1-14.3,151.3,308.7,455.9c323,304.6,378.2,386.4,378.2,554c0,118.6-75.6,257.6-179.9,331.2C5243.4,1582.3,5237.3,1584.4,5218.9,1563.9z"/><path d="M4991.9,353.6c-30.7-32.7-32.7-79.7-20.4-460c8.2-233,20.4-415,30.7-406.8c14.3,18.4,49.1,905.6,34.7,905.6C5030.8,392.5,5012.4,376.1,4991.9,353.6z"/><path d="M5163.7-325.1c0-249.4-28.6-298.5-255.5-431.4c-173.8-100.2-284.2-179.9-269.9-192.2c16.4-16.4,511.1,214.6,562.2,261.7c132.9,122.7,139,345.5,12.3,498.8l-47,59.3L5163.7-325.1z"/></g></g>
</svg>