<?xml version="1.0" encoding="iso-8859-1"?>
<!-- Generator: Adobe Illustrator 19.0.0, SVG Export Plug-In . SVG Version: 6.00 Build 0)  -->
<svg version="1.1" id="Layer_1" xmlns="http://www.w3.org/2000/svg" xmlns:xlink="http://www.w3.org/1999/xlink" x="0px" y="0px"
	 viewBox="0 0 512 512" style="enable-background:new 0 0 512 512;" xml:space="preserve">
<path style="fill:#D80027;" d="M450.207,194.207C450.207,86.95,363.256,0,256,0S61.793,86.95,61.793,194.207
	C61.793,335.449,256,512,256,512S450.207,335.449,450.207,194.207z"/>
<path style="fill:#A2001D;" d="M450.207,194.207C450.207,86.95,363.256,0,256,0c0,211.862,0,512,0,512
	S450.207,335.449,450.207,194.207z"/>
<circle style="fill:#FFFFFF;" cx="255.997" cy="194.207" r="129.472"/>
<path style="fill:#D80027;" d="M320.736,121.019v146.377H280.53v-57.314h-49.065v57.314h-40.201V121.019h40.201v54.016h49.065
	v-54.016H320.736z"/>
<polygon style="fill:#A2001D;" points="280.53,121.019 280.53,175.034 256,175.034 256,210.082 280.53,210.082 280.53,267.396 
	320.736,267.396 320.736,121.019 "/>
<g>
</g>
<g>
</g>
<g>
</g>
<g>
</g>
<g>
</g>
<g>
</g>
<g>
</g>
<g>
</g>
<g>
</g>
<g>
</g>
<g>
</g>
<g>
</g>
<g>
</g>
<g>
</g>
<g>
</g>
</svg>
